<?xml version="1.0" standalone="no"?>
<!DOCTYPE svg PUBLIC "-//W3C//DTD SVG 20010904//EN"
 "http://www.w3.org/TR/2001/REC-SVG-20010904/DTD/svg10.dtd">
<svg version="1.0" xmlns="http://www.w3.org/2000/svg"
 width="1200.000000pt" height="1200.000000pt" viewBox="0 0 1200.000000 1200.000000"
 preserveAspectRatio="xMidYMid meet">

<g transform="translate(0.000000,1200.000000) scale(0.100000,-0.100000)"
fill="#000000" stroke="none">
<path d="M5529 11113 c-255 -207 -612 -498 -793 -645 l-330 -268 -1303 0
-1303 0 0 -1059 0 -1059 -320 -258 c-175 -143 -319 -263 -320 -267 0 -10 81
-107 89 -107 4 0 128 99 276 219 l270 219 3 -934 c1 -514 1 -1355 0 -1869 l-3
-935 -270 220 c-148 121 -273 220 -277 220 -7 0 -88 -99 -88 -109 0 -3 144
-123 320 -266 l320 -259 0 -1078 0 -1078 1328 0 1327 -1 310 -252 c798 -650
1217 -988 1229 -993 7 -3 359 276 782 620 l769 625 1328 1 1327 0 0 1078 0
1078 320 259 c176 143 320 263 320 266 0 10 -81 109 -88 109 -4 0 -126 -97
-272 -216 -146 -119 -268 -218 -273 -221 -4 -2 -7 838 -7 1867 l0 1871 226
-183 c124 -101 248 -201 276 -223 l50 -39 44 49 c24 28 43 55 43 60 0 6 -144
127 -320 269 l-319 259 0 1059 0 1058 -1302 0 -1303 0 -794 645 c-436 355
-797 645 -801 645 -4 0 -216 -170 -471 -377z m1153 -363 l671 -545 -677 -3
c-372 -1 -981 -1 -1353 0 l-677 3 228 185 c126 102 429 348 675 547 245 200
450 362 454 360 4 -1 310 -248 679 -547z m-3294 -1377 c-845 -686 -1403 -1139
-1425 -1156 -10 -8 -13 176 -13 912 l0 921 1135 0 1136 0 -833 -677z m5409
-341 l1253 -1017 0 -1995 0 -1995 -967 -785 c-531 -432 -1106 -899 -1276
-1038 l-310 -252 -1497 0 -1497 0 -279 227 c-424 345 -1737 1412 -2022 1643
l-252 204 0 1996 0 1995 243 196 c133 108 697 566 1252 1018 l1010 821 1545 0
1545 0 1252 -1018z m1253 97 c0 -696 -3 -918 -12 -913 -23 14 -2248 1825
-2248 1829 0 3 509 5 1130 5 l1130 0 0 -921z m-7855 -5495 c943 -765 2043
-1659 2055 -1670 12 -12 -155 -14 -1143 -14 l-1157 0 0 941 c0 752 3 939 13
932 6 -6 111 -91 232 -189z m7852 -1681 c-2 -2 -522 -2 -1156 -1 l-1153 3
1154 937 1153 937 3 -936 c1 -515 1 -938 -1 -940z m-2738 -156 c-189 -157
-1294 -1050 -1303 -1053 -7 -3 -222 165 -477 373 -255 207 -549 446 -652 530
l-189 153 1313 0 c722 0 1310 -2 1308 -3z"/>
<path d="M5976 8854 c-23 -23 -20 -35 24 -100 22 -33 40 -67 40 -77 0 -10 -13
-44 -30 -77 -39 -77 -38 -118 2 -188 l31 -55 -31 -57 c-18 -32 -32 -69 -32
-82 0 -14 14 -53 32 -87 l31 -61 -36 -53 c-44 -64 -49 -104 -12 -113 38 -9 52
0 95 67 48 74 51 113 15 181 -31 58 -31 73 0 123 33 54 31 96 -7 171 l-32 63
34 70 c49 103 45 134 -32 239 -40 54 -65 64 -92 36z"/>
<path d="M5692 8538 c-19 -19 -14 -40 23 -98 41 -65 43 -91 10 -145 -14 -23
-25 -55 -25 -75 0 -20 11 -52 25 -75 33 -54 31 -77 -11 -145 -30 -49 -34 -61
-24 -79 7 -14 21 -21 40 -21 25 0 36 10 71 61 54 80 60 123 25 185 -14 25 -26
57 -26 69 0 12 12 44 26 69 35 63 29 104 -30 195 -47 73 -75 88 -104 59z"/>
<path d="M6332 8363 c-79 -101 -91 -157 -47 -228 13 -22 25 -48 25 -58 0 -11
-17 -46 -37 -79 -42 -68 -38 -91 15 -96 29 -3 35 2 72 59 57 88 60 115 19 194
l-32 64 41 63 c47 72 49 80 26 102 -25 25 -50 19 -82 -21z"/>
<path d="M5422 8254 c-30 -21 -28 -41 13 -101 42 -63 43 -82 7 -136 -16 -23
-32 -50 -35 -60 -11 -30 10 -57 44 -57 25 0 35 9 69 61 64 99 62 139 -10 244
-39 57 -60 69 -88 49z"/>
<path d="M5093 7924 c-36 -18 -73 -70 -73 -103 0 -19 -5 -21 -65 -21 -96 0
-145 -31 -145 -91 0 -12 19 -99 43 -191 l42 -169 -30 -22 c-16 -12 -42 -34
-57 -48 l-28 -27 0 -162 c0 -96 4 -169 11 -182 16 -31 71 -48 152 -48 l73 0
24 -82 c35 -121 99 -242 170 -320 l62 -68 -344 0 c-254 0 -347 -3 -356 -12
-20 -20 -14 -48 22 -97 52 -70 95 -107 161 -138 l60 -28 1055 0 1055 0 55 26
c70 33 117 74 165 144 34 48 37 58 27 80 l-12 25 -325 0 -325 0 65 77 c35 43
79 107 97 144 l33 67 115 27 c290 69 397 128 457 255 22 46 26 69 26 135 0 98
-22 154 -88 224 -67 72 -128 96 -243 96 -50 0 -92 2 -92 5 0 3 14 71 31 151
29 130 30 148 18 174 -8 16 -25 35 -39 42 -20 10 -198 13 -812 13 l-788 0 0
26 c0 56 -70 114 -137 114 -15 0 -43 -8 -60 -16z m95 -86 c25 -25 13 -38 -33
-38 -48 0 -55 9 -29 34 18 19 45 21 62 4z m-170 -263 c2 -123 1 -131 -19 -143
-11 -7 -22 -12 -23 -10 -8 10 -71 279 -67 284 3 3 28 4 56 2 l50 -3 3 -130z
m1832 124 c0 -22 -193 -885 -210 -941 -38 -123 -130 -250 -236 -329 l-53 -39
-460 0 -459 0 -60 45 c-106 80 -183 189 -228 321 -35 106 -36 104 46 104 76 0
122 16 140 49 6 11 10 89 10 178 0 123 -3 163 -15 179 -8 12 -59 58 -115 104
l-100 83 0 122 c0 67 3 125 7 128 12 13 1733 8 1733 -4z m-1689 -411 l89 -71
0 -134 0 -133 -187 2 -188 3 -3 127 -3 127 93 75 c51 42 97 76 102 76 5 0 49
-32 97 -72z m1936 12 c165 -92 161 -330 -6 -414 -70 -36 -335 -116 -345 -105
-6 7 104 503 113 512 40 40 172 44 238 7z m-82 -1030 c-16 -16 -49 -38 -74
-47 -43 -17 -115 -18 -1081 -18 l-1035 0 -40 22 c-38 20 -85 58 -85 68 0 3
527 5 1172 5 l1172 0 -29 -30z"/>
<path d="M5260 7591 c-14 -27 -13 -37 6 -55 12 -13 39 -16 124 -16 114 0 140
9 140 49 0 35 -21 41 -142 41 -106 0 -118 -2 -128 -19z"/>
<path d="M5642 7598 c-7 -7 -12 -21 -12 -33 0 -45 -3 -45 535 -45 538 0 535 0
535 45 0 12 -5 26 -12 33 -17 17 -1029 17 -1046 0z"/>
<path d="M5266 6754 c-11 -11 -16 -35 -16 -79 0 -83 23 -110 71 -85 16 9 19
22 19 85 0 63 -3 76 -19 85 -27 14 -37 13 -55 -6z"/>
<path d="M5508 6759 c-15 -8 -18 -24 -18 -84 0 -64 3 -76 20 -85 23 -12 54 0
64 26 14 37 6 114 -14 134 -23 23 -28 24 -52 9z"/>
<path d="M5736 6754 c-11 -11 -16 -35 -16 -79 0 -83 23 -110 71 -85 16 9 19
22 19 85 0 63 -3 76 -19 85 -27 14 -37 13 -55 -6z"/>
<path d="M5974 6756 c-15 -12 -19 -27 -19 -81 0 -54 4 -69 19 -81 11 -8 23
-14 26 -14 3 0 15 6 26 14 15 12 19 27 19 81 0 54 -4 69 -19 81 -11 8 -23 14
-26 14 -3 0 -15 -6 -26 -14z"/>
<path d="M6208 6759 c-15 -8 -18 -24 -18 -84 0 -63 3 -76 19 -85 48 -25 71 2
71 85 0 83 -25 112 -72 84z"/>
<path d="M6440 6750 c-20 -20 -28 -97 -14 -134 10 -26 41 -38 64 -26 17 9 20
21 20 85 0 63 -3 76 -19 85 -26 13 -28 13 -51 -10z"/>
<path d="M3303 4914 c0 -9 9 -19 19 -22 16 -4 18 -17 18 -158 0 -147 -1 -154
-20 -154 -13 0 -20 -7 -20 -20 0 -18 7 -20 55 -20 48 0 55 2 55 20 0 11 -7 20
-15 20 -13 0 -15 26 -15 175 l0 175 -38 0 c-29 0 -39 -4 -39 -16z"/>
<path d="M5403 4914 c0 -9 9 -19 19 -22 16 -4 18 -17 18 -158 0 -147 -1 -154
-20 -154 -13 0 -20 -7 -20 -19 0 -17 9 -19 92 -19 87 0 92 1 120 28 74 74 -3
196 -102 162 l-30 -11 0 105 0 104 -38 0 c-29 0 -39 -4 -39 -16z m175 -230
c44 -31 20 -104 -35 -104 -57 0 -82 61 -43 100 24 24 48 25 78 4z"/>
<path d="M5683 4914 c0 -9 9 -19 19 -22 16 -4 18 -17 18 -158 0 -147 -1 -154
-20 -154 -13 0 -20 -7 -20 -20 0 -18 7 -20 55 -20 48 0 55 2 55 20 0 11 -7 20
-15 20 -13 0 -15 26 -15 175 l0 175 -38 0 c-29 0 -39 -4 -39 -16z"/>
<path d="M7023 4914 c0 -9 9 -19 19 -22 16 -4 18 -17 18 -158 0 -147 -1 -154
-20 -154 -13 0 -20 -7 -20 -20 0 -18 7 -20 55 -20 48 0 55 2 55 20 0 11 -7 20
-15 20 -18 0 -19 12 -3 28 17 17 38 -4 38 -39 0 -28 2 -29 50 -29 43 0 50 3
50 20 0 14 -7 20 -22 20 -15 0 -32 13 -47 35 l-24 36 23 24 c13 14 29 25 37
25 7 0 13 7 13 15 0 11 -12 15 -51 15 -49 0 -51 -1 -45 -24 4 -16 0 -29 -14
-41 -20 -18 -20 -17 -20 123 l0 142 -38 0 c-29 0 -39 -4 -39 -16z"/>
<path d="M8693 4914 c-40 -20 -63 -68 -63 -133 0 -39 -4 -51 -15 -51 -8 0 -15
-9 -15 -20 0 -11 7 -20 15 -20 12 0 15 -13 15 -55 0 -42 -3 -55 -15 -55 -8 0
-15 -9 -15 -20 0 -18 7 -20 55 -20 48 0 55 2 55 20 0 13 -7 20 -20 20 -18 0
-20 7 -20 55 0 54 0 55 30 55 23 0 30 4 30 20 0 16 -7 20 -30 20 -29 0 -30 2
-30 44 0 63 15 95 50 107 19 7 30 18 30 30 0 23 -15 24 -57 3z"/>
<path d="M6346 4896 c-107 -40 -153 -150 -107 -252 29 -63 81 -97 155 -102 42
-2 67 1 80 11 32 24 11 35 -57 30 -57 -5 -65 -3 -95 22 -18 15 -39 40 -47 56
-40 76 6 177 93 204 34 10 92 -3 92 -20 0 -8 9 -15 20 -15 27 0 27 45 1 59
-34 18 -95 21 -135 7z"/>
<path d="M8126 4896 c-107 -40 -153 -150 -107 -252 29 -63 81 -97 155 -102 42
-2 67 1 80 11 32 24 11 35 -57 30 -57 -5 -65 -3 -95 22 -18 15 -39 40 -47 56
-40 76 6 177 93 204 34 10 92 -3 92 -20 0 -8 9 -15 20 -15 27 0 27 45 1 59
-34 18 -95 21 -135 7z"/>
<path d="M3030 4881 c0 -12 5 -21 10 -21 6 0 10 -53 10 -140 0 -87 -4 -140
-10 -140 -5 0 -10 -9 -10 -20 0 -18 7 -20 60 -20 53 0 60 2 60 20 0 16 -7 20
-30 20 -30 0 -30 0 -30 59 l0 58 54 6 c61 6 90 21 105 54 18 39 13 71 -18 105
-28 32 -33 33 -115 37 -82 3 -86 2 -86 -18z m170 -41 c26 -26 25 -46 -5 -75
-18 -18 -35 -25 -65 -25 l-40 0 0 60 0 60 45 0 c32 0 51 -6 65 -20z"/>
<path d="M4520 4880 c0 -11 7 -20 15 -20 13 0 15 -22 15 -140 0 -118 -2 -140
-15 -140 -8 0 -15 -9 -15 -20 0 -19 7 -20 130 -20 l130 0 0 40 c0 33 -3 40
-20 40 -13 0 -20 -7 -20 -20 0 -18 -7 -20 -75 -20 l-75 0 0 60 0 60 80 0 c73
0 80 2 80 20 0 18 -7 20 -80 20 l-80 0 0 60 0 60 70 0 c56 0 70 -3 70 -15 0
-8 9 -15 20 -15 16 0 20 7 20 35 l0 35 -125 0 c-118 0 -125 -1 -125 -20z"/>
<path d="M7330 4825 c-15 -18 -5 -35 21 -35 12 0 19 7 19 19 0 24 -25 34 -40
16z"/>
<path d="M3514 4730 c-12 -4 -31 -21 -44 -37 -29 -37 -23 -98 15 -130 40 -35
135 -28 123 8 -3 9 -20 14 -48 14 -65 0 -58 18 15 44 36 13 65 25 65 28 0 19
-36 66 -56 73 -30 12 -42 12 -70 0z m63 -46 c2 -7 -17 -19 -42 -27 -49 -17
-57 -9 -24 24 21 21 60 23 66 3z"/>
<path d="M3744 4730 c-97 -39 -72 -190 32 -190 20 0 44 5 55 10 13 7 19 7 19
0 0 -5 18 -10 39 -10 31 0 39 4 37 17 -2 9 -11 20 -21 23 -16 6 -19 17 -18 78
1 64 -1 72 -18 72 -10 0 -19 -5 -19 -11 0 -5 -10 -3 -22 5 -25 17 -52 19 -84
6z m74 -46 c25 -17 31 -71 10 -92 -21 -21 -75 -15 -92 10 -21 30 -20 54 4 78
24 24 48 25 78 4z"/>
<path d="M3990 4720 c-35 -35 -25 -67 28 -94 39 -20 43 -46 7 -46 -14 0 -25 5
-25 10 0 6 -7 10 -15 10 -20 0 -20 -46 1 -54 52 -20 107 4 107 47 0 33 -15 51
-54 67 -31 13 -34 33 -6 38 10 2 17 -3 17 -13 0 -25 34 -14 38 13 3 16 -4 25
-23 32 -38 14 -52 13 -75 -10z"/>
<path d="M4194 4730 c-12 -4 -31 -21 -44 -37 -29 -37 -23 -98 15 -130 40 -35
135 -28 123 8 -3 9 -20 14 -48 14 -65 0 -58 18 15 44 36 13 65 25 65 28 0 19
-36 66 -56 73 -30 12 -42 12 -70 0z m63 -46 c2 -7 -17 -19 -42 -27 -49 -17
-57 -9 -24 24 21 21 60 23 66 3z"/>
<path d="M4938 4724 c-16 -8 -28 -20 -29 -27 0 -7 -4 -2 -9 11 -7 17 -17 22
-45 22 -37 0 -45 -19 -12 -32 13 -6 17 -19 17 -63 0 -48 -2 -55 -20 -55 -13 0
-20 -7 -20 -20 0 -18 7 -20 55 -20 48 0 55 2 55 20 0 11 -7 20 -15 20 -11 0
-15 11 -15 39 0 31 6 44 26 60 52 41 84 22 84 -51 0 -41 -3 -48 -20 -48 -13 0
-20 -7 -20 -20 0 -18 7 -20 55 -20 48 0 55 2 55 20 0 11 -7 20 -15 20 -12 0
-15 13 -15 60 0 90 -43 122 -112 84z"/>
<path d="M5184 4730 c-97 -39 -72 -190 32 -190 20 0 44 5 55 10 13 7 19 7 19
0 0 -5 18 -10 39 -10 31 0 39 4 37 17 -2 9 -11 20 -21 23 -16 6 -19 17 -18 78
1 64 -1 72 -18 72 -10 0 -19 -5 -19 -11 0 -5 -10 -3 -22 5 -25 17 -52 19 -84
6z m74 -46 c25 -17 31 -71 10 -92 -21 -21 -75 -15 -92 10 -21 30 -20 54 4 78
24 24 48 25 78 4z"/>
<path d="M5894 4730 c-12 -4 -31 -21 -44 -37 -29 -37 -23 -98 15 -130 40 -35
135 -28 123 8 -3 9 -20 14 -48 14 -65 0 -58 18 15 44 36 13 65 25 65 28 0 19
-36 66 -56 73 -30 12 -42 12 -70 0z m63 -46 c2 -7 -17 -19 -42 -27 -49 -17
-57 -9 -24 24 21 21 60 23 66 3z"/>
<path d="M6604 4730 c-12 -4 -31 -21 -44 -37 -49 -62 -1 -153 80 -153 106 0
143 137 50 185 -32 17 -54 18 -86 5z m74 -46 c43 -30 17 -104 -36 -104 -56 0
-81 61 -42 100 24 24 48 25 78 4z"/>
<path d="M6844 4730 c-12 -4 -31 -21 -44 -37 -49 -62 -1 -153 80 -153 106 0
143 137 50 185 -32 17 -54 18 -86 5z m74 -46 c43 -30 17 -104 -36 -104 -56 0
-81 61 -42 100 24 24 48 25 78 4z"/>
<path d="M7504 4730 c-12 -4 -31 -21 -44 -37 -29 -37 -23 -98 15 -130 40 -35
135 -28 123 8 -3 9 -20 14 -48 14 -65 0 -58 18 15 44 36 13 65 25 65 28 0 19
-36 66 -56 73 -30 12 -42 12 -70 0z m63 -46 c2 -7 -17 -19 -42 -27 -49 -17
-57 -9 -24 24 21 21 60 23 66 3z"/>
<path d="M7700 4720 c-35 -35 -25 -67 28 -94 39 -20 43 -46 7 -46 -14 0 -25 5
-25 10 0 6 -7 10 -15 10 -20 0 -20 -46 1 -54 52 -20 107 4 107 47 0 33 -15 51
-54 67 -31 13 -34 33 -6 38 10 2 17 -3 17 -13 0 -25 34 -14 38 13 3 16 -4 25
-23 32 -38 14 -52 13 -75 -10z"/>
<path d="M8384 4730 c-97 -39 -72 -190 32 -190 20 0 44 5 55 10 13 7 19 7 19
0 0 -5 18 -10 39 -10 31 0 39 4 37 17 -2 9 -11 20 -21 23 -16 6 -19 17 -18 78
1 64 -1 72 -18 72 -10 0 -19 -5 -19 -11 0 -5 -10 -3 -22 5 -25 17 -52 19 -84
6z m74 -46 c25 -17 31 -71 10 -92 -21 -21 -75 -15 -92 10 -21 30 -20 54 4 78
24 24 48 25 78 4z"/>
<path d="M8834 4730 c-12 -4 -31 -21 -44 -37 -29 -37 -23 -98 15 -130 40 -35
135 -28 123 8 -3 9 -20 14 -48 14 -65 0 -58 18 15 44 36 13 65 25 65 28 0 19
-36 66 -56 73 -30 12 -42 12 -70 0z m63 -46 c2 -7 -17 -19 -42 -27 -49 -17
-57 -9 -24 24 21 21 60 23 66 3z"/>
<path d="M7290 4716 c0 -7 9 -16 20 -19 17 -4 20 -14 20 -61 0 -49 -2 -56 -20
-56 -13 0 -20 -7 -20 -20 0 -18 7 -20 55 -20 48 0 55 2 55 20 0 11 -7 20 -15
20 -12 0 -15 15 -15 75 l0 75 -40 0 c-27 0 -40 -4 -40 -14z"/>
</g>
</svg>
